Coordinates
version=1
nRows=10
nColumns=22
inDegrees=yes

Units are S.I. units (second, meters, Newtons, ...)
If the header above contains a line with 'inDegrees', this indicates whether rotational values are in degrees (yes) or radians (no).

endheader
time	pelvis_tilt	pelvis_list	pelvis_rotation	pelvis_tx	pelvis_ty	pelvis_tz	hip_flexion_r	hip_adduction_r	hip_rotation_r	knee_angle_r	ankle_angle_r	subtalar_angle_r	hip_flexion_l	hip_adduction_l	hip_rotation_l	knee_angle_l	ankle_angle_l	subtalar_angle_l	lumbar_extension	lumbar_bending	lumbar_rotation
      4.18000000	     11.35547111	     -6.99884564	     10.97395692	      1.02977876	      0.91282287	      0.02627937	     14.56761958	      9.11559464	    -12.21471343	    -21.28312631	     -3.83939911	     -0.81512872	    -12.93938150	     -9.10761265	      3.22112397	    -49.46264479	      8.02229270	     -5.76464047	     -9.88116205	      8.59778622	    -13.86870221
      4.19000000	     11.54078769	     -7.14906629	     11.10929684	      1.03932470	      0.91456432	      0.02674454	     13.84871434	      9.48134409	    -12.23795063	    -21.43742651	     -3.11961704	     -1.02330723	    -11.86962517	     -9.47038591	      3.43328106	    -51.80883205	      5.56432723	     -5.49162263	     -9.95253428	      8.70545029	    -13.84164512
      4.20000000	     11.71719309	     -7.28057662	     11.33525993	      1.04850077	      0.91618048	      0.02705479	     13.11139117	      9.82116704	    -12.30214907	    -21.48706929	     -2.40506513	     -1.25156855	    -10.66039561	     -9.82699587	      3.71919468	    -54.17001470	      3.39892816	     -5.14777439	    -10.04374913	      8.80108026	    -13.82223024
      4.21000000	     11.88284697	     -7.38084649	     11.62560524	      1.05728911	      0.91765927	      0.02726080	     12.38789832	     10.12383996	    -12.38128119	    -21.49530201	     -1.71442604	     -1.50997567	     -9.33715538	    -10.15772389	      4.04819266	    -56.49655571	      1.59703463	     -4.69184821	    -10.16483904	      8.87035802	    -13.85134200
      4.22000000	     12.05046531	     -7.45992492	     11.98007554	      1.06574305	      0.91904254	      0.02732671	     11.65958565	     10.39354992	    -12.53606828	    -21.45504392	     -1.08070027	     -1.73445313	     -7.94173982	    -10.46954584	      4.41359791	    -58.72995929	      0.26196413	     -4.29898603	    -10.31757530	      8.92968190	    -13.87783940
      4.23000000	     12.21364264	     -7.52652494	     12.36046614	      1.07389975	      0.92033016	      0.02731806	     10.93863447	     10.65101536	    -12.70156501	    -21.38051826	     -0.48086369	     -1.97100633	     -6.49719674	    -10.76990258	      4.76545098	    -60.82695435	     -0.54135170	     -3.97326090	    -10.49232945	      8.98511143	    -13.89300172
      4.24000000	     12.39187340	     -7.59113477	     12.74953669	      1.08181526	      0.92158527	      0.02725297	     10.19304199	     10.91404041	    -12.88284182	    -21.25372870	      0.07378185	     -2.16644159	     -5.05384525	    -11.07394824	      5.07979313	    -62.74227325	     -0.77806110	     -3.85763665	    -10.70254750	      9.05002729	    -13.86906880
      4.25000000	     12.52710749	     -7.63844770	     13.10426755	      1.08948431	      0.92273939	      0.02720222	      9.49983124	     11.16362269	    -12.98338777	    -21.11668743	      0.59414981	     -2.44860254	     -3.56376432	    -11.34504062	      5.33287424	    -64.46770606	     -0.53965216	     -3.94462177	    -10.88790097	      9.09156116	    -13.84449374
      4.26000000	     12.65766546	     -7.68317653	     13.41541339	      1.09697335	      0.92387066	      0.02716569	      8.80625933	     11.41565608	    -13.06074145	    -20.95205784	      1.08721455	     -2.76381035	     -2.09279558	    -11.61275503	      5.50120908	    -65.97256981	      0.11130429	     -4.40381684	    -11.07916113	      9.13128534	    -13.76038223
      4.27000000	     12.77511757	     -7.72812100	     13.67905777	      1.10429132	      0.92498798	      0.02715790	      8.11096578	     11.67443695	    -13.09337885	    -20.73808637	      1.48870340	     -3.03368674	     -0.64310263	    -11.86816173	      5.60878916	    -67.24995954	      1.05524360	     -5.11995278	    -11.26259717	      9.16883557	    -13.64985026
